<svg width="150" height="35" viewBox="0 0 150 35" fill="none" xmlns="http://www.w3.org/2000/svg">
<path d="M22.3646 0.929031L23.9481 0L23.9327 35L22.3773 34.2466L22.3646 0.929031Z" fill="#0477EF"/>
<path d="M18.3559 3.06824L19.9327 2.06227L19.9255 33.0927L18.3657 32.0662L18.3559 3.06824Z" fill="#0477EF"/>
<path d="M14.3467 7.02165L15.9562 5.06023L15.9247 30.0025L14.3476 28.1505L14.3467 7.02165Z" fill="#0477EF"/>
<path d="M1.58356 0.929031L0 0L0.0154053 35L1.57082 34.2466L1.58356 0.929031Z" fill="#0477EF"/>
<path d="M5.59223 3.06824L4.01542 2.06227L4.02269 33.0927L5.5825 32.0662L5.59223 3.06824Z" fill="#0477EF"/>
<path d="M9.60148 7.02165L7.99192 5.06023L8.02347 30.0025L9.60052 28.1505L9.60148 7.02165Z" fill="#0477EF"/>
<path d="M13.0596 18.0201C13.0596 21.3791 11.9826 24.102 11.9826 24.102C11.9826 24.102 10.9056 21.3791 10.9056 18.0201C10.9056 14.6612 11.9826 11.9383 11.9826 11.9383C11.9826 11.9383 13.0596 14.6612 13.0596 18.0201Z" fill="#0477EF"/>
<path d="M50.3667 28.9307H45.3562L41.0159 21.6815L36.6757 28.9307H31.6971L38.5267 17.5164L32.0482 6.67443H37.0267L41.0159 13.3513L45.0052 6.67443H49.9837L43.5052 17.4846L50.3667 28.9307Z" fill="#0477EF"/>
<path d="M57.2393 24.7338H66.6539V28.9307H52.8352V6.67443H66.4943V10.8713H57.2393V15.6087H65.6965V19.742H57.2393V24.7338Z" fill="#0477EF"/>
<path d="M82.6833 6.67443H87.0874V28.9307H83.7364L74.1623 15.3226V28.9307H69.7582V6.67443H73.1092L82.6833 20.2507V6.67443Z" fill="#0477EF"/>
<path d="M106.007 6.67443V10.8713H99.9758V28.9307H95.5717V10.8713H89.5719V6.67443H106.007Z" fill="#0477EF"/>
<path d="M120.721 28.9307L116.221 21.2046H112.87V28.9307H108.466V6.67443H117.402C119.466 6.67443 121.221 7.39511 122.668 8.83646C124.114 10.2778 124.838 12.0159 124.838 14.0508C124.838 15.4285 124.444 16.7109 123.657 17.8979C122.87 19.0637 121.827 19.9434 120.529 20.5369L125.476 28.9307H120.721ZM112.87 10.7759V17.3574H117.402C118.232 17.3574 118.944 17.0395 119.54 16.4036C120.136 15.7465 120.434 14.9622 120.434 14.0508C120.434 13.1393 120.136 12.3657 119.54 11.7298C118.944 11.0939 118.232 10.7759 117.402 10.7759H112.87Z" fill="#0477EF"/>
<path d="M146.617 26.0374C144.362 28.263 141.617 29.3758 138.383 29.3758C135.149 29.3758 132.405 28.263 130.15 26.0374C127.916 23.7905 126.799 21.0456 126.799 17.8025C126.799 14.5595 127.916 11.8252 130.15 9.59954C132.405 7.35272 135.149 6.22931 138.383 6.22931C141.617 6.22931 144.362 7.35272 146.617 9.59954C148.872 11.8252 150 14.5595 150 17.8025C150 21.0456 148.872 23.7905 146.617 26.0374ZM133.245 23.0487C134.628 24.4052 136.341 25.0835 138.383 25.0835C140.426 25.0835 142.139 24.4052 143.522 23.0487C144.904 21.6709 145.596 19.9222 145.596 17.8025C145.596 15.6829 144.904 13.9342 143.522 12.5564C142.139 11.1787 140.426 10.4898 138.383 10.4898C136.341 10.4898 134.628 11.1787 133.245 12.5564C131.862 13.9342 131.171 15.6829 131.171 17.8025C131.171 19.9222 131.862 21.6709 133.245 23.0487Z" fill="#0477EF"/>
</svg>
