<svg width="35" height="35" viewBox="0 0 35 35" fill="none" xmlns="http://www.w3.org/2000/svg">
<g clipPath="url(#clip0_7_208)">
<path d="M17.7139 2.26172C21.659 2.26172 25.4425 3.8289 28.2321 6.61851C31.0217 9.40811 32.5889 13.1916 32.5889 17.1367C32.5889 21.0818 31.0217 24.8653 28.2321 27.6549C25.4425 30.4445 21.659 32.0117 17.7139 32.0117C13.7688 32.0117 9.98526 30.4445 7.19565 27.6549C4.40605 24.8653 2.83887 21.0818 2.83887 17.1367C2.83887 13.1916 4.40605 9.40811 7.19565 6.61851C9.98526 3.8289 13.7688 2.26172 17.7139 2.26172ZM17.7139 34.1367C22.2225 34.1367 26.5466 32.3457 29.7347 29.1575C32.9228 25.9694 34.7139 21.6454 34.7139 17.1367C34.7139 12.628 32.9228 8.30402 29.7347 5.1159C26.5466 1.92779 22.2225 0.136719 17.7139 0.136719C13.2052 0.136719 8.88117 1.92779 5.69305 5.1159C2.50493 8.30402 0.713867 12.628 0.713867 17.1367C0.713867 21.6454 2.50493 25.9694 5.69305 29.1575C8.88117 32.3457 13.2052 34.1367 17.7139 34.1367ZM24.8393 13.6371L25.5896 12.8867L24.0889 11.3859L23.3385 12.1363L15.5889 19.8859L12.0893 16.3863L11.3389 15.6359L9.83809 17.1367L10.5885 17.8871L14.8385 22.1371L15.5889 22.8875L16.3393 22.1371L24.8393 13.6371Z" fill="#0477EF"/>
</g>
<defs>
<clipPath id="clip0_7_208">
<rect width="34" height="34" fill="white" transform="translate(0.713867 0.136719)"/>
</clipPath>
</defs>
</svg>
