<svg width="19" height="19" viewBox="0 0 19 19" fill="none" xmlns="http://www.w3.org/2000/svg">
<path d="M16.5225 9.38672C16.5225 8.5003 16.3479 7.62255 16.0086 6.80361C15.6694 5.98466 15.1722 5.24054 14.5454 4.61375C13.9186 3.98695 13.1745 3.48975 12.3556 3.15053C11.5366 2.81131 10.6589 2.63672 9.77246 2.63672C8.88604 2.63672 8.0083 2.81131 7.18935 3.15053C6.3704 3.48975 5.62629 3.98695 4.99949 4.61375C4.37269 5.24054 3.87549 5.98466 3.53627 6.80361C3.19705 7.62255 3.02246 8.5003 3.02246 9.38672C3.02246 10.2731 3.19705 11.1509 3.53627 11.9698C3.87549 12.7888 4.37269 13.5329 4.99949 14.1597C5.62629 14.7865 6.3704 15.2837 7.18935 15.6229C8.0083 15.9621 8.88604 16.1367 9.77246 16.1367C10.6589 16.1367 11.5366 15.9621 12.3556 15.6229C13.1745 15.2837 13.9186 14.7865 14.5454 14.1597C15.1722 13.5329 15.6694 12.7888 16.0086 11.9698C16.3479 11.1509 16.5225 10.2731 16.5225 9.38672ZM0.772461 9.38672C0.772461 6.99977 1.72067 4.71059 3.4085 3.02276C5.09633 1.33493 7.38551 0.386719 9.77246 0.386719C12.1594 0.386719 14.4486 1.33493 16.1364 3.02276C17.8242 4.71059 18.7725 6.99977 18.7725 9.38672C18.7725 11.7737 17.8242 14.0629 16.1364 15.7507C14.4486 17.4385 12.1594 18.3867 9.77246 18.3867C7.38551 18.3867 5.09633 17.4385 3.4085 15.7507C1.72067 14.0629 0.772461 11.7737 0.772461 9.38672ZM9.77246 8.26172C10.0708 8.26172 10.357 8.38025 10.568 8.59122C10.7789 8.8022 10.8975 9.08835 10.8975 9.38672C10.8975 9.68509 10.7789 9.97124 10.568 10.1822C10.357 10.3932 10.0708 10.5117 9.77246 10.5117C9.47409 10.5117 9.18794 10.3932 8.97697 10.1822C8.76599 9.97124 8.64746 9.68509 8.64746 9.38672C8.64746 9.08835 8.76599 8.8022 8.97697 8.59122C9.18794 8.38025 9.47409 8.26172 9.77246 8.26172Z" fill="white"/>
</svg>
