<svg width="1185" height="279" viewBox="0 0 1185 279" fill="none" xmlns="http://www.w3.org/2000/svg">
<path d="M176.944 8.05824L189.447 0.695862L189.325 278.064L177.045 272.093L176.944 8.05824Z" fill="#0477EF"/>
<path d="M145.295 25.011L157.744 17.039L157.687 262.949L145.372 254.814L145.295 25.011Z" fill="#0477EF"/>
<path d="M113.641 56.341L126.349 40.7971L126.1 238.459L113.649 223.783L113.641 56.341Z" fill="#0477EF"/>
<path d="M12.8736 8.05824L0.371094 0.695862L0.492722 278.064L12.773 272.093L12.8736 8.05824Z" fill="#0477EF"/>
<path d="M44.523 25.011L32.0737 17.039L32.1311 262.949L44.4461 254.814L44.523 25.011Z" fill="#0477EF"/>
<path d="M76.1769 56.341L63.4691 40.7971L63.7182 238.459L76.1693 223.783L76.1769 56.341Z" fill="#0477EF"/>
<path d="M103.48 143.502C103.48 170.12 94.9764 191.699 94.9764 191.699C94.9764 191.699 86.473 170.12 86.473 143.502C86.473 116.883 94.9764 95.3043 94.9764 95.3043C94.9764 95.3043 103.48 116.883 103.48 143.502Z" fill="#0477EF"/>
<path d="M398.027 229.965H358.468L324.201 172.517L289.934 229.965H250.627L304.548 139.51L253.399 53.5893H292.705L324.201 106.502L355.697 53.5893H395.004L343.854 139.258L398.027 229.965Z" fill="#0477EF"/>
<path d="M452.288 196.706H526.618V229.965H417.517V53.5893H525.358V86.8488H452.288V124.392H519.059V157.147H452.288V196.706Z" fill="#0477EF"/>
<path d="M653.174 53.5893H687.945V229.965H661.489L585.899 122.124V229.965H551.128V53.5893H577.584L653.174 161.179V53.5893Z" fill="#0477EF"/>
<path d="M837.323 53.5893V86.8488H789.702V229.965H754.931V86.8488H707.561V53.5893H837.323Z" fill="#0477EF"/>
<path d="M953.49 229.965L917.962 168.738H891.506V229.965H856.735V53.5893H927.285C943.579 53.5893 957.437 59.3006 968.859 70.723C980.282 82.1455 985.993 95.9196 985.993 112.045C985.993 122.964 982.886 133.127 976.67 142.533C970.455 151.772 962.224 158.743 951.978 163.446L991.032 229.965H953.49ZM891.506 86.0929V138.25H927.285C933.836 138.25 939.464 135.73 944.167 130.691C948.87 125.484 951.222 119.268 951.222 112.045C951.222 104.822 948.87 98.6912 944.167 93.6519C939.464 88.6126 933.836 86.0929 927.285 86.0929H891.506Z" fill="#0477EF"/>
<path d="M1157.95 207.036C1140.14 224.674 1118.47 233.493 1092.94 233.493C1067.41 233.493 1045.74 224.674 1027.93 207.036C1010.29 189.231 1001.48 167.478 1001.48 141.777C1001.48 116.077 1010.29 94.4078 1027.93 76.7702C1045.74 58.9646 1067.41 50.0618 1092.94 50.0618C1118.47 50.0618 1140.14 58.9646 1157.95 76.7702C1175.75 94.4078 1184.65 116.077 1184.65 141.777C1184.65 167.478 1175.75 189.231 1157.95 207.036ZM1052.37 183.352C1063.29 194.102 1076.81 199.478 1092.94 199.478C1109.06 199.478 1122.59 194.102 1133.51 183.352C1144.42 172.433 1149.88 158.575 1149.88 141.777C1149.88 124.98 1144.42 111.122 1133.51 100.203C1122.59 89.2845 1109.06 83.8252 1092.94 83.8252C1076.81 83.8252 1063.29 89.2845 1052.37 100.203C1041.45 111.122 1035.99 124.98 1035.99 141.777C1035.99 158.575 1041.45 172.433 1052.37 183.352Z" fill="#0477EF"/>
</svg>
